<?xml version="1.0" standalone="no"?>
<!DOCTYPE svg PUBLIC "-//W3C//DTD SVG 20010904//EN"
 "http://www.w3.org/TR/2001/REC-SVG-20010904/DTD/svg10.dtd">
<svg version="1.0" xmlns="http://www.w3.org/2000/svg"
 width="1600.000000pt" height="1600.000000pt" viewBox="0 0 1600.000000 1600.000000"
 preserveAspectRatio="xMidYMid meet">
<metadata>
Created by potrace 1.11, written by Peter Selinger 2001-2013
</metadata>
<g transform="translate(0.000000,1600.000000) scale(0.100000,-0.100000)"
fill="#000000" stroke="none">
<path d="M9280 14054 c-57 -48 -99 -83 -229 -192 -42 -35 -85 -71 -96 -80 -27
-22 -133 -111 -165 -138 -114 -98 -361 -304 -386 -324 -26 -20 -171 -142 -473
-395 -13 -11 -29 -25 -35 -30 -6 -6 -105 -89 -221 -185 -115 -96 -212 -177
-215 -180 -3 -3 -142 -120 -310 -260 -373 -311 -312 -261 -520 -435 -96 -81
-184 -154 -195 -163 -55 -45 -141 -117 -145 -122 -3 -3 -30 -25 -60 -50 -30
-25 -57 -47 -60 -50 -3 -3 -70 -60 -150 -126 -125 -104 -526 -440 -926 -774
-23 -19 -52 -44 -65 -55 -72 -59 -155 -130 -159 -135 -3 -3 -14 -13 -26 -21
-11 -8 -45 -35 -75 -60 -51 -44 -190 -161 -234 -197 -138 -114 -195 -167 -195
-183 0 -5 -5 -15 -10 -22 -6 -7 -87 -142 -181 -302 -94 -159 -220 -371 -279
-470 -59 -99 -160 -270 -225 -380 -65 -110 -137 -231 -160 -270 -23 -38 -109
-182 -190 -320 -82 -137 -190 -320 -241 -405 -50 -85 -101 -171 -111 -190 -11
-19 -75 -126 -142 -238 -66 -112 -121 -207 -121 -212 0 -6 -4 -10 -10 -10 -5
0 -10 -5 -10 -10 0 -6 -11 -27 -24 -48 -54 -85 -246 -413 -246 -421 0 -5 -4
-11 -8 -13 -5 -1 -25 -32 -46 -68 -20 -36 -46 -82 -59 -102 -12 -21 -60 -102
-106 -180 -46 -79 -94 -159 -106 -178 -18 -28 -799 -1345 -1135 -1915 -46 -77
-100 -168 -121 -202 -22 -34 -39 -65 -39 -67 0 -2 -22 -41 -50 -85 -27 -44
-50 -83 -50 -86 0 -3 12 -3 28 -1 15 3 61 8 102 11 41 4 89 8 105 10 17 2 59
7 95 10 36 3 81 8 100 10 38 5 96 11 200 20 86 8 145 14 200 20 25 3 68 7 95
10 28 3 68 7 90 9 22 2 69 7 105 11 123 12 145 14 195 20 28 3 75 7 105 10 30
3 73 7 95 10 40 4 100 10 205 20 30 3 71 8 90 10 19 2 67 7 105 10 39 3 84 8
100 10 27 4 81 9 205 20 25 3 65 7 90 10 25 2 72 7 105 10 33 3 76 8 95 10 40
5 144 15 210 20 25 2 63 6 85 9 22 3 69 8 105 11 196 18 234 25 244 42 6 10
33 58 59 108 27 49 73 133 102 185 29 52 105 192 170 310 171 313 173 316 230
420 46 83 123 224 343 625 30 55 67 123 82 150 15 28 71 131 125 230 54 99
107 194 117 210 10 17 21 37 25 45 4 8 42 80 86 160 44 80 93 170 110 200 69
127 96 177 224 410 75 135 151 274 170 310 20 36 95 173 168 305 72 132 149
272 170 310 44 82 74 137 142 260 28 50 72 131 98 180 26 50 51 95 55 100 4 6
24 42 45 80 54 100 167 307 233 425 13 25 40 74 60 110 19 36 42 79 52 95 10
17 37 66 60 110 24 44 88 160 142 258 54 98 98 180 98 183 0 2 10 21 23 42 24
38 64 110 134 242 22 41 74 136 115 210 41 74 94 171 118 215 24 44 50 91 58
105 7 14 28 52 46 85 18 33 46 85 63 115 17 30 157 287 313 570 155 283 296
540 313 570 16 30 42 78 57 105 15 28 36 66 47 85 11 19 41 76 68 125 26 50
56 104 65 120 10 17 56 100 103 185 46 85 96 175 109 200 14 25 53 97 88 160
35 63 74 135 88 160 13 25 38 70 54 100 30 54 127 232 176 320 13 25 67 124
120 220 52 96 98 180 102 185 11 17 91 165 88 165 -2 0 -28 -21 -58 -46z"/>
<path d="M9479 11794 c-160 -324 -456 -920 -657 -1324 -200 -404 -498 -1005
-662 -1335 -164 -330 -354 -714 -424 -853 -69 -139 -126 -259 -126 -265 0 -7
37 -55 83 -108 45 -52 102 -119 127 -148 25 -29 56 -66 70 -81 14 -15 45 -51
69 -80 25 -29 50 -58 55 -64 6 -6 51 -58 101 -116 49 -58 92 -107 95 -110 3
-3 41 -48 85 -100 44 -52 85 -99 91 -105 6 -5 37 -41 70 -80 32 -38 64 -75 70
-81 5 -6 30 -35 55 -64 24 -29 49 -58 54 -64 6 -6 51 -58 100 -116 50 -58 92
-107 95 -110 3 -3 34 -38 68 -78 34 -40 75 -87 91 -105 16 -18 61 -70 101
-117 70 -83 165 -192 185 -214 6 -6 35 -40 65 -76 30 -36 60 -70 65 -76 13
-14 80 -92 250 -289 75 -88 149 -173 164 -190 14 -16 53 -61 86 -100 33 -38
72 -83 87 -100 14 -16 117 -136 228 -265 112 -129 226 -262 255 -295 56 -64
239 -277 267 -310 9 -11 27 -31 38 -45 12 -14 43 -49 68 -79 26 -30 52 -59 57
-65 6 -6 37 -43 70 -81 33 -39 62 -72 65 -75 13 -13 367 -426 372 -436 4 -5
-3 -10 -15 -11 -26 0 -138 -12 -164 -17 -10 -2 -49 -7 -88 -10 -38 -4 -83 -9
-100 -11 -16 -2 -52 -7 -80 -10 -27 -3 -63 -8 -80 -10 -16 -2 -59 -7 -95 -10
-36 -4 -78 -8 -95 -10 -16 -2 -50 -6 -75 -9 -25 -3 -66 -8 -92 -11 -27 -3 -69
-7 -95 -10 -27 -3 -70 -8 -98 -11 -27 -2 -61 -7 -75 -9 -14 -2 -52 -7 -85 -10
-33 -3 -78 -8 -100 -11 -22 -2 -62 -7 -90 -9 -27 -3 -66 -8 -85 -10 -19 -3
-55 -7 -80 -10 -25 -3 -61 -7 -80 -10 -19 -2 -64 -7 -100 -11 -36 -3 -72 -7
-80 -9 -8 -1 -46 -6 -85 -9 -38 -4 -81 -9 -95 -11 -14 -2 -54 -6 -90 -10 -36
-4 -76 -8 -90 -10 -14 -2 -52 -6 -85 -10 -33 -3 -112 -12 -175 -20 -122 -15
-200 -24 -265 -30 -22 -2 -65 -7 -95 -10 -30 -4 -66 -8 -80 -10 -46 -5 -155
-17 -185 -21 -16 -2 -52 -6 -80 -9 -27 -3 -70 -8 -95 -11 -71 -8 -100 -12
-170 -19 -36 -4 -73 -9 -82 -11 -9 -1 -49 -6 -89 -9 -40 -4 -80 -8 -89 -10
-10 -2 -53 -6 -96 -10 -43 -4 -87 -9 -98 -11 -10 -2 -44 -6 -75 -9 -31 -3 -70
-8 -87 -10 -17 -2 -57 -7 -90 -10 -32 -3 -70 -8 -84 -10 -14 -2 -47 -7 -75 -9
-106 -12 -193 -21 -320 -36 -44 -5 -107 -12 -140 -15 -33 -4 -71 -8 -85 -10
-14 -2 -50 -6 -80 -10 -30 -3 -71 -8 -90 -10 -19 -3 -62 -7 -95 -11 -33 -3
-71 -7 -85 -9 -14 -2 -52 -7 -85 -10 -33 -3 -71 -8 -85 -10 -14 -2 -56 -6 -93
-10 -37 -3 -76 -8 -85 -10 -9 -1 -44 -6 -77 -9 -33 -4 -76 -9 -95 -11 -19 -2
-80 -9 -135 -15 -105 -11 -157 -17 -215 -25 -19 -2 -60 -7 -90 -10 -84 -9
-124 -14 -265 -30 -71 -8 -152 -17 -180 -20 -75 -8 -226 -25 -262 -30 -18 -3
-63 -8 -100 -11 -37 -4 -70 -8 -72 -10 -2 -2 67 -4 155 -5 87 0 299 -2 469 -4
406 -5 1919 -21 2770 -30 550 -5 1356 -14 1970 -20 226 -3 660 -7 965 -10 305
-3 735 -7 955 -10 220 -3 666 -7 990 -11 325 -3 739 -7 920 -9 182 -2 637 -7
1012 -10 376 -4 699 -8 718 -9 19 -1 35 0 35 1 0 5 -58 109 -130 233 -40 69
-84 145 -98 170 -14 25 -66 117 -117 205 -50 88 -103 180 -117 205 -52 92
-248 436 -257 450 -6 8 -51 87 -101 175 -109 191 -124 219 -203 355 -34 58
-71 123 -83 145 -29 53 -311 546 -324 565 -5 8 -18 31 -28 50 -10 19 -80 141
-154 270 -74 129 -146 255 -160 280 -14 25 -130 227 -258 450 -128 223 -246
430 -263 460 -17 30 -48 83 -69 118 -21 34 -38 64 -38 67 0 3 -18 34 -40 70
-22 36 -40 67 -40 70 0 3 -18 34 -40 70 -22 36 -40 68 -40 71 0 3 -16 30 -35
60 -19 30 -35 57 -35 60 0 4 -15 32 -34 63 -19 31 -45 76 -59 101 -14 25 -121
212 -237 415 -117 204 -226 395 -243 425 -16 30 -38 67 -49 82 -10 14 -18 29
-18 32 0 3 -14 29 -31 58 -18 29 -236 411 -487 848 -250 437 -477 832 -503
878 -27 45 -49 84 -49 86 0 2 -45 81 -100 176 -55 95 -100 174 -100 175 0 2
-36 64 -80 140 -44 76 -80 140 -80 142 0 3 -8 17 -18 31 -11 15 -32 52 -49 82
-17 30 -134 237 -262 458 -127 222 -231 408 -231 413 0 5 -4 9 -10 9 -5 0 -10
4 -10 9 0 5 -38 76 -85 157 -47 81 -85 148 -85 149 0 2 -24 44 -54 95 l-54 93
-293 -589z"/>
</g>
</svg>
