<?xml version="1.0" standalone="no"?>
<!DOCTYPE svg PUBLIC "-//W3C//DTD SVG 20010904//EN"
 "http://www.w3.org/TR/2001/REC-SVG-20010904/DTD/svg10.dtd">
<svg version="1.0" xmlns="http://www.w3.org/2000/svg"
 width="400.000000pt" height="400.000000pt" viewBox="0 0 400.000000 400.000000"
 preserveAspectRatio="xMidYMid meet">
<metadata>
Created by potrace 1.11, written by Peter Selinger 2001-2013
</metadata>
<g transform="translate(0.000000,400.000000) scale(0.100000,-0.100000)"
fill="#000000" stroke="none">
<path d="M830 3773 c0 -5 -25 -26 -55 -47 l-54 -39 0 -928 c0 -864 1 -928 17
-933 9 -3 28 -7 42 -10 14 -2 90 -18 170 -36 79 -17 151 -32 160 -34 8 -2 26
-6 40 -9 14 -4 39 -9 55 -12 17 -2 50 -9 75 -15 25 -6 58 -12 73 -15 15 -2
112 -23 215 -45 103 -23 198 -43 212 -45 14 -2 25 -4 25 -5 0 -2 38 -11 60
-14 11 -1 29 -5 40 -9 11 -3 36 -8 55 -11 19 -3 139 -28 265 -55 127 -28 244
-52 260 -55 17 -3 41 -8 55 -11 14 -4 31 -7 39 -9 8 -1 17 -10 20 -19 5 -12 6
-387 2 -418 -1 -3 -57 7 -124 22 -68 15 -137 30 -153 33 -16 2 -31 5 -34 6 -3
1 -9 3 -15 5 -5 1 -12 3 -15 5 -3 1 -16 3 -30 4 -14 2 -36 5 -50 9 -25 6 -472
102 -520 111 -14 3 -36 7 -50 10 -14 3 -36 8 -50 11 -14 3 -34 7 -45 9 -19 4
-300 64 -340 73 -11 2 -31 6 -45 9 -14 2 -36 7 -50 10 -14 3 -36 8 -50 11 -14
2 -62 12 -106 22 l-82 17 -61 -48 c-51 -41 -61 -53 -61 -80 0 -30 -1 -30 -37
-24 -21 3 -47 8 -58 11 -14 4 -38 -8 -80 -42 -48 -39 -59 -54 -60 -78 0 -32 1
-32 -80 -20 -37 5 -45 2 -98 -40 l-57 -47 0 -94 c0 -87 2 -94 20 -95 21 -2 38
-5 43 -9 2 -2 11 -3 72 -14 17 -2 103 -21 193 -41 90 -20 176 -38 190 -40 15
-2 34 -6 42 -9 17 -6 54 -13 115 -22 22 -4 48 -10 58 -15 9 -6 17 -8 17 -5 0
3 15 0 33 -5 17 -5 46 -11 62 -14 17 -2 68 -13 115 -24 101 -23 319 -68 375
-77 22 -3 43 -8 48 -11 4 -2 20 -6 35 -9 15 -2 88 -18 162 -34 74 -15 149 -31
165 -34 17 -4 39 -8 50 -11 11 -3 54 -12 95 -20 41 -9 86 -18 100 -21 14 -2
106 -22 205 -44 99 -21 194 -41 210 -44 17 -4 41 -9 55 -12 14 -3 34 -7 45 -9
33 -6 74 -15 190 -40 159 -35 295 -63 333 -70 28 -5 40 1 80 32 26 21 52 44
58 52 8 10 11 257 11 848 0 809 0 834 -18 830 -11 -3 -21 -2 -24 3 -2 4 -19
10 -37 13 -153 28 -147 26 -373 76 -99 22 -191 42 -205 44 -14 3 -36 8 -50 11
-14 4 -38 9 -55 11 -16 2 -30 4 -30 5 0 2 -32 9 -60 14 -11 2 -31 6 -45 10
-14 3 -36 8 -50 10 -14 2 -65 13 -115 25 -108 24 -242 52 -270 57 -11 1 -31 6
-45 9 -14 3 -34 8 -45 9 -11 2 -31 6 -45 10 -14 3 -36 8 -50 10 -14 3 -102 21
-195 42 l-170 36 0 309 c0 203 3 309 10 309 6 0 71 -13 145 -29 74 -17 146
-32 160 -35 14 -2 50 -10 80 -16 30 -6 69 -13 85 -16 17 -3 46 -9 65 -14 33
-9 286 -64 340 -74 33 -6 65 -13 120 -26 25 -5 56 -12 70 -14 24 -4 90 -18
330 -70 124 -26 137 -25 181 26 9 10 20 18 23 18 18 0 36 31 36 60 0 28 3 31
23 27 76 -19 102 -18 127 5 14 13 39 34 57 46 23 17 31 29 28 48 -3 32 12 38
70 26 45 -10 46 -9 107 40 l61 49 1 89 c1 72 -2 91 -14 95 -34 9 -307 67 -339
71 -18 2 -37 7 -42 10 -5 3 -22 7 -37 9 -15 3 -36 6 -47 9 -12 2 -108 23 -215
45 -107 23 -206 44 -220 48 -14 3 -34 7 -45 9 -11 1 -31 5 -45 9 -14 4 -43 9
-65 12 -22 3 -42 9 -43 14 -2 5 -7 7 -12 4 -4 -3 -86 12 -182 34 -95 21 -180
39 -188 39 -8 1 -35 6 -60 12 -25 7 -56 14 -70 16 -14 3 -110 23 -213 45 -104
22 -198 42 -211 43 -12 1 -26 5 -31 8 -11 6 -56 15 -150 31 -16 3 -104 22
-195 42 -154 34 -289 62 -335 71 -11 1 -32 6 -47 9 -16 3 -28 2 -28 -2z"/>
</g>
</svg>
